<svg width="65" height="64" viewBox="0 0 65 64" fill="none" xmlns="http://www.w3.org/2000/svg">
<path d="M56.6 29.4667L34.8667 7.73335C34.2 7.06669 33.2667 6.66669 32.3333 6.66669C31.4 6.66669 30.4667 7.06669 29.8 7.73335L25.1333 12.4L30.6 17.8667C31.1333 17.6 31.6667 17.4667 32.3333 17.4667C34.6 17.4667 36.3333 19.2 36.3333 21.4667C36.3333 22.1334 36.2 22.6667 35.9333 23.2L41.2667 28.5334C41.8 28.2667 42.3333 28.1334 43 28.1334C45.2667 28.1334 47 29.8667 47 32.1334C47 34.4 45.2667 36.1334 43 36.1334C40.7333 36.1334 39 34.4 39 32.1334C39 31.4667 39.1333 30.9334 39.4 30.4L34.0667 25.0667C33.9333 25.0667 33.8 25.2 33.6667 25.2V39.0667C35.2667 39.6 36.3333 41.0667 36.3333 42.8C36.3333 45.0667 34.6 46.8 32.3333 46.8C30.0667 46.8 28.3333 45.0667 28.3333 42.8C28.3333 41.0667 29.4 39.6 31 39.0667V25.0667C29.4 24.5334 28.3333 23.0667 28.3333 21.3334C28.3333 20.6667 28.4667 20.1334 28.7333 19.6L23.2667 14.1334L8.06667 29.4667C7.4 30.1334 7 31.0667 7 32C7 32.9334 7.4 33.8667 8.06667 34.5334L29.8 56.2667C30.4667 56.9334 31.4 57.3334 32.3333 57.3334C33.2667 57.3334 34.2 56.9334 34.8667 56.2667L56.6 34.5334C57.2667 33.8667 57.6667 32.9334 57.6667 32C57.6667 31.0667 57.2667 30.1334 56.6 29.4667Z" fill="#F4511E"/>
</svg>
