<svg width="43" height="64" viewBox="0 0 43 64" fill="none" xmlns="http://www.w3.org/2000/svg">
<g clip-path="url(#clip0_2410_1167)">
<path d="M21.5 32C21.5 29.171 22.6238 26.4579 24.6242 24.4575C26.6246 22.4571 29.3377 21.3333 32.1667 21.3333C34.9956 21.3333 37.7087 22.4571 39.7091 24.4575C41.7095 26.4579 42.8333 29.171 42.8333 32C42.8333 34.829 41.7095 37.5421 39.7091 39.5425C37.7087 41.5428 34.9956 42.6666 32.1667 42.6666C29.3377 42.6666 26.6246 41.5428 24.6242 39.5425C22.6238 37.5421 21.5 34.829 21.5 32Z" fill="#1ABCFE"/>
<path d="M0.166748 53.3334C0.166748 50.5044 1.29055 47.7913 3.29094 45.7909C5.29133 43.7905 8.00444 42.6667 10.8334 42.6667H21.5001V53.3334C21.5001 56.1623 20.3763 58.8754 18.3759 60.8758C16.3755 62.8762 13.6624 64 10.8334 64C8.00444 64 5.29133 62.8762 3.29094 60.8758C1.29055 58.8754 0.166748 56.1623 0.166748 53.3334Z" fill="#0ACF83"/>
<path d="M21.5 0V21.3333H32.1667C34.9956 21.3333 37.7087 20.2095 39.7091 18.2091C41.7095 16.2087 42.8333 13.4956 42.8333 10.6667C42.8333 7.83769 41.7095 5.12458 39.7091 3.12419C37.7087 1.12381 34.9956 0 32.1667 0L21.5 0Z" fill="#FF7262"/>
<path d="M0.166748 10.6667C0.166748 13.4956 1.29055 16.2087 3.29094 18.2091C5.29133 20.2095 8.00444 21.3333 10.8334 21.3333H21.5001V0H10.8334C8.00444 0 5.29133 1.12381 3.29094 3.12419C1.29055 5.12458 0.166748 7.83769 0.166748 10.6667Z" fill="#F24E1E"/>
<path d="M0.166748 32C0.166748 34.829 1.29055 37.5421 3.29094 39.5425C5.29133 41.5428 8.00444 42.6666 10.8334 42.6666H21.5001V21.3333H10.8334C8.00444 21.3333 5.29133 22.4571 3.29094 24.4575C1.29055 26.4579 0.166748 29.171 0.166748 32Z" fill="#A259FF"/>
</g>
<defs>
<clipPath id="clip0_2410_1167">
<rect width="42.6667" height="64" fill="white" transform="translate(0.166748)"/>
</clipPath>
</defs>
</svg>
