<svg width="65" height="64" viewBox="0 0 65 64" fill="none" xmlns="http://www.w3.org/2000/svg">
<g clip-path="url(#clip0_316_272)">
<path d="M61.7273 0H3.72729C2.07044 0 0.727295 1.34315 0.727295 3V61C0.727295 62.6569 2.07044 64 3.72729 64H61.7273C63.3841 64 64.7273 62.6569 64.7273 61V3C64.7273 1.34315 63.3841 0 61.7273 0Z" fill="#3178C6"/>
<path fill-rule="evenodd" clip-rule="evenodd" d="M37.8584 49.734V56.747C38.9946 57.331 40.3383 57.7695 41.8896 58.0615C43.441 58.354 45.076 58.5 46.7949 58.5C48.47 58.5 50.0614 58.3395 51.5688 58.018C53.0768 57.6965 54.3983 57.167 55.5348 56.429C56.6708 55.691 57.5703 54.727 58.2333 53.536C58.8958 52.3455 59.2273 50.8735 59.2273 49.1203C59.2273 47.8493 59.0378 46.7353 58.6593 45.7783C58.2803 44.8214 57.7343 43.9704 57.0203 43.2252C56.3068 42.4801 55.4508 41.8117 54.4533 41.22C53.4553 40.6283 52.3303 40.0694 51.0773 39.5435C50.1597 39.1636 49.3367 38.7947 48.6084 38.4368C47.88 38.0788 47.261 37.7136 46.7512 37.341C46.2413 36.9684 45.848 36.574 45.5713 36.1576C45.2945 35.7413 45.1561 35.27 45.1561 34.7441C45.1561 34.2619 45.2799 33.8273 45.5276 33.4402C45.7752 33.053 46.1248 32.7206 46.5764 32.443C47.0279 32.1655 47.5814 31.95 48.2369 31.7966C48.8924 31.6431 49.6207 31.5664 50.4219 31.5664C51.0048 31.5664 51.6198 31.6103 52.2683 31.6979C52.9163 31.7856 53.5683 31.9207 54.2238 32.1034C54.8793 32.286 55.5163 32.5161 56.1358 32.7937C56.7548 33.0713 57.3263 33.3927 57.8508 33.7579V27.2054C56.7873 26.7963 55.6258 26.4931 54.3658 26.2959C53.1058 26.0986 51.6603 26 50.0286 26C48.368 26 46.7949 26.1789 45.3091 26.5369C43.8233 26.8948 42.516 27.4537 41.3871 28.2134C40.2582 28.9731 39.366 29.941 38.7105 31.1171C38.055 32.2932 37.7273 33.6995 37.7273 35.3358C37.7273 37.4251 38.3281 39.2074 39.5299 40.683C40.7316 42.1587 42.556 43.4079 45.0032 44.4305C45.9646 44.825 46.8604 45.2122 47.6907 45.592C48.521 45.9719 49.2384 46.3664 49.8429 46.7755C50.4474 47.1846 50.9243 47.6302 51.2738 48.1123C51.6238 48.5944 51.7983 49.1423 51.7983 49.7559C51.7983 50.209 51.6893 50.629 51.4708 51.016C51.2523 51.403 50.9208 51.739 50.4765 52.024C50.0322 52.309 49.4787 52.532 48.8159 52.6925C48.1532 52.853 47.3775 52.9335 46.489 52.9335C44.974 52.9335 43.4737 52.667 41.9879 52.1335C40.5022 51.6005 39.1257 50.8005 37.8584 49.734ZM26.0786 32.2772H35.2273V26.5H9.72729V32.2772H18.8312V58H26.0786V32.2772Z" fill="white"/>
</g>
<defs>
<clipPath id="clip0_316_272">
<rect width="64" height="64" fill="white" transform="translate(0.727295)"/>
</clipPath>
</defs>
</svg>
