<svg width="70" height="64" viewBox="0 0 70 64" fill="none" xmlns="http://www.w3.org/2000/svg">
<g clip-path="url(#clip0_316_277)">
<path d="M34.9999 38.7725C38.6723 38.7725 41.6493 35.7404 41.6493 32C41.6493 28.2597 38.6723 25.2275 34.9999 25.2275C31.3276 25.2275 28.3506 28.2597 28.3506 32C28.3506 35.7404 31.3276 38.7725 34.9999 38.7725Z" fill="#087EA4"/>
<path d="M34.9999 47.2381C53.3616 47.2381 68.2467 40.4158 68.2467 32C68.2467 23.5842 53.3616 16.7619 34.9999 16.7619C16.6383 16.7619 1.75317 23.5842 1.75317 32C1.75317 40.4158 16.6383 47.2381 34.9999 47.2381Z" stroke="#087EA4" stroke-width="3"/>
<path d="M22.0433 39.6191C31.2242 55.8152 44.4676 65.5336 51.6234 61.3257C58.7791 57.1179 57.1375 40.5771 47.9566 24.381C38.7758 8.18481 25.5324 -1.5336 18.3766 2.67429C11.2209 6.88217 12.8625 23.4229 22.0433 39.6191Z" stroke="#087EA4" stroke-width="3"/>
<path d="M22.0432 24.381C12.8623 40.5771 11.2207 57.1179 18.3764 61.3257C25.5322 65.5336 38.7756 55.8152 47.9565 39.6191C57.1373 23.4229 58.7789 6.88217 51.6232 2.67429C44.4674 -1.5336 31.224 8.18481 22.0432 24.381Z" stroke="#087EA4" stroke-width="3"/>
</g>
<defs>
<clipPath id="clip0_316_277">
<rect width="69.8182" height="64" fill="white" transform="translate(0.0908203)"/>
</clipPath>
</defs>
</svg>
